<svg width="28" height="29" viewBox="0 0 28 29" fill="none" xmlns="http://www.w3.org/2000/svg">
<path d="M25.6623 21.7683C25.6623 22.6165 25.1898 24.2498 24.1293 25.147C23.917 25.3103 23.7035 25.2182 23.7968 24.9802C24.106 24.2242 24.8141 22.4753 24.4816 22.0728C24.2483 21.7672 23.28 21.7893 22.454 21.8605C22.076 21.9083 21.7458 21.9305 21.488 21.983C21.2511 22.0028 21.2021 21.7928 21.4401 21.6295C21.7458 21.4137 22.076 21.2503 22.4551 21.1302C23.7968 20.7288 25.3485 20.9703 25.5701 21.227C25.6121 21.276 25.6635 21.4137 25.6635 21.7672L25.6623 21.7683ZM23.4211 23.278C23.1131 23.5133 22.7896 23.7277 22.4528 23.9197C19.9771 25.4072 16.7711 26.1865 13.9851 26.1865C9.50163 26.1865 5.4918 24.5333 2.44913 21.7672C2.18896 21.5548 2.4048 21.2468 2.7093 21.4137C5.98763 23.327 10.0453 24.4843 14.2465 24.4843C17.0551 24.4764 19.8379 23.9479 22.454 22.9257C22.643 22.8545 22.8553 22.7577 23.0408 22.69C23.469 22.4975 23.8458 22.9735 23.4211 23.278V23.278ZM16.2228 10.4097C16.2228 9.19517 16.2706 8.48 15.8681 7.86633C15.5111 7.36117 14.8963 7.05783 14.0388 7.10567C13.1078 7.157 12.108 7.76717 11.8525 8.886C11.8035 9.14267 11.653 9.39467 11.3438 9.4495L8.5018 9.08783C8.2988 9.04117 7.9908 8.886 8.09113 8.48C8.7013 5.26933 11.4453 4.1505 14.0388 4H14.649C16.0723 4 17.9005 4.40717 19.0706 5.47467C20.4905 6.8 20.34 8.58033 20.34 10.5147V15.0962C20.34 16.4705 20.8965 17.0795 21.4576 17.7958C21.6093 18.0513 21.6606 18.3523 21.4051 18.56C20.6704 19.2156 19.9248 19.8589 19.1686 20.4897C18.9656 20.6448 18.5993 20.6612 18.457 20.5422C17.5586 19.7897 17.3393 19.372 16.7828 18.6078C15.8145 19.624 15.0025 20.1852 14.0353 20.4897C13.3551 20.6623 12.6557 20.747 11.954 20.7417C9.51563 20.7417 7.58363 19.2215 7.58363 16.215C7.58363 13.8245 8.8553 12.1993 10.7336 11.4305C12.612 10.6605 15.342 10.4155 16.2216 10.4108L16.2228 10.4097ZM15.6651 16.467C16.2718 15.4497 16.2216 14.6167 16.2216 12.7512C15.4621 12.7512 14.698 12.8037 14.0388 12.9588C12.8196 13.3123 11.8525 14.08 11.8525 15.7063C11.8525 16.978 12.514 17.8437 13.6316 17.8437C13.7856 17.8437 13.921 17.825 14.0388 17.7912C14.8205 17.5742 15.3081 17.1822 15.6651 16.467V16.467Z" fill="white"/>
</svg>
