<svg width="28" height="29" viewBox="0 0 28 29" fill="none" xmlns="http://www.w3.org/2000/svg">
<path d="M13.5616 8.92567C12.5396 8.92567 10.9576 7.76367 9.29165 7.80567C7.09365 7.83367 5.07765 9.07967 3.94365 11.0537C1.66165 15.0157 3.35565 20.8677 5.58165 24.0877C6.67365 25.6557 7.96165 27.4197 9.66965 27.3637C11.3076 27.2937 11.9236 26.2997 13.9116 26.2997C15.8856 26.2997 16.4456 27.3637 18.1816 27.3217C19.9456 27.2937 21.0656 25.7257 22.1436 24.1437C23.3896 22.3237 23.9076 20.5597 23.9356 20.4617C23.8936 20.4477 20.5056 19.1457 20.4636 15.2257C20.4356 11.9497 23.1376 10.3817 23.2636 10.3117C21.7236 8.05767 19.3576 7.80567 18.5316 7.74967C16.3756 7.58167 14.5696 8.92567 13.5616 8.92567ZM17.2016 5.62167C18.1116 4.52967 18.7136 3.00367 18.5456 1.49167C17.2436 1.54767 15.6756 2.35967 14.7376 3.45167C13.8976 4.41767 13.1696 5.97167 13.3656 7.45567C14.8076 7.56767 16.2916 6.71367 17.2016 5.62167Z" fill="white"/>
</svg>
