<svg width="28" height="29" viewBox="0 0 28 29" fill="none" xmlns="http://www.w3.org/2000/svg">
<path d="M3.57498 9.26166C4.54566 7.32878 6.03475 5.70392 7.87582 4.56871C9.71689 3.43349 11.8374 2.83265 14.0003 2.83333C17.1445 2.83333 19.7858 3.98833 21.8053 5.8725L18.4605 9.2185C17.2506 8.06233 15.713 7.47316 14.0003 7.47316C10.9611 7.47316 8.38865 9.5265 7.47282 12.2833C7.23948 12.9833 7.10648 13.73 7.10648 14.5C7.10648 15.27 7.23948 16.0167 7.47282 16.7167C8.38982 19.4747 10.9611 21.5268 14.0003 21.5268C15.5695 21.5268 16.9053 21.1127 17.9506 20.4127C18.5567 20.0137 19.0755 19.4959 19.4757 18.8907C19.876 18.2856 20.1493 17.6055 20.2793 16.8917H14.0003V12.379H24.988C25.1256 13.142 25.2003 13.9377 25.2003 14.7648C25.2003 18.3185 23.9286 21.3098 21.7213 23.3398C19.7916 25.1225 17.1503 26.1667 14.0003 26.1667C12.4681 26.1673 10.9507 25.8659 9.53495 25.2798C8.11921 24.6938 6.83284 23.8344 5.74937 22.7509C4.6659 21.6675 3.80656 20.3811 3.22047 18.9654C2.63438 17.5496 2.33304 16.0323 2.33365 14.5C2.33365 12.617 2.78398 10.8367 3.57498 9.26166Z" fill="white"/>
<rect x="0.500305" y="1" width="27" height="27" stroke="black"/>
</svg>
