<svg width="63" height="20" viewBox="0 0 63 20" fill="none" xmlns="http://www.w3.org/2000/svg">
<path d="M40.5852 0.0307922C36.2159 0.0307922 32.3112 2.29551 32.3112 6.47975C32.3112 11.2783 39.2363 11.6097 39.2363 14.0204C39.2363 15.0354 38.073 15.944 36.0863 15.944C33.2668 15.944 31.1594 14.6744 31.1594 14.6744L30.2577 18.8968C30.2577 18.8968 32.6853 19.9692 35.9084 19.9692C40.6855 19.9692 44.4445 17.5933 44.4445 13.3375C44.4445 8.26697 37.4906 7.94538 37.4906 5.7079C37.4906 4.91277 38.4455 4.04156 40.4265 4.04156C42.6617 4.04156 44.4854 4.9649 44.4854 4.9649L45.3678 0.886806C45.3678 0.886806 43.3835 0.0307922 40.5852 0.0307922ZM0.609797 0.338573L0.503998 0.954134C0.503998 0.954134 2.34219 1.29055 3.99779 1.96163C6.1295 2.73116 6.28136 3.17914 6.64037 4.57055L10.5526 19.6518H15.7968L23.8761 0.338573H18.6438L13.4524 13.4697L11.334 2.33915C11.1397 1.06526 10.1557 0.338573 8.95113 0.338573H0.609797ZM25.98 0.338573L21.8755 19.6518H26.8649L30.955 0.338573H25.98ZM53.8077 0.338573C52.6046 0.338573 51.9671 0.982705 51.4994 2.10831L44.1896 19.6518H49.4219L50.4342 16.7279H56.8086L57.4242 19.6518H62.0409L58.0133 0.338573H53.8077ZM54.4882 5.55641L56.0391 12.8037H51.8841L54.4882 5.55641Z" fill="#1434CB"/>
</svg>
