<svg width="87" height="26" viewBox="0 0 87 26" fill="none" xmlns="http://www.w3.org/2000/svg">
<g clip-path="url(#clip0_1_732)">
<path d="M27.9171 5.61288H22.7361C22.3815 5.61288 22.08 5.87046 22.0247 6.22046L19.9293 19.5061C19.8876 19.7682 20.0906 20.0046 20.3565 20.0046H22.83C23.1846 20.0046 23.4861 19.747 23.5414 19.3962L24.1065 15.8129C24.1611 15.4621 24.4634 15.2046 24.8171 15.2046H26.4573C29.8702 15.2046 31.8399 13.553 32.3543 10.2803C32.5861 8.84849 32.3641 7.72349 31.6937 6.93561C30.9573 6.07046 29.6512 5.61288 27.9171 5.61288ZM28.5149 10.4652C28.2315 12.3242 26.8111 12.3242 25.4376 12.3242H24.6558L25.2043 8.85228C25.2368 8.64243 25.4187 8.48788 25.6308 8.48788H25.9891C26.9247 8.48788 27.8073 8.48788 28.2634 9.02122C28.5353 9.3394 28.6187 9.81213 28.5149 10.4652Z" fill="#253B80"/>
<path d="M43.4043 10.4053H40.9232C40.7118 10.4053 40.5293 10.5598 40.4967 10.7697L40.3868 11.4636L40.2134 11.2121C39.6762 10.4326 38.4785 10.172 37.283 10.172C34.5414 10.172 32.1997 12.2485 31.7437 15.1614C31.5065 16.6144 31.8437 18.0038 32.6679 18.9727C33.424 19.8636 34.5058 20.2348 35.7929 20.2348C38.002 20.2348 39.227 18.8144 39.227 18.8144L39.1164 19.5038C39.0747 19.7674 39.2777 20.0038 39.5421 20.0038H41.777C42.1323 20.0038 42.4323 19.7462 42.4883 19.3955L43.8293 10.9038C43.8717 10.6424 43.6694 10.4053 43.4043 10.4053ZM39.9459 15.2341C39.7065 16.6515 38.5815 17.603 37.1467 17.603C36.4262 17.603 35.8505 17.372 35.4808 16.9341C35.1141 16.4992 34.9747 15.8803 35.0914 15.1909C35.3149 13.7856 36.4588 12.803 37.8717 12.803C38.5762 12.803 39.149 13.0371 39.5262 13.4788C39.9043 13.925 40.0543 14.5477 39.9459 15.2341Z" fill="#253B80"/>
<path d="M56.6179 10.4053H54.1247C53.8869 10.4053 53.6634 10.5235 53.5285 10.7212L50.0899 15.7864L48.6323 10.9189C48.5406 10.6144 48.2596 10.4053 47.9414 10.4053H45.4914C45.1937 10.4053 44.9868 10.6962 45.0815 10.9765L47.8278 19.0356L45.2459 22.6803C45.0429 22.9674 45.2475 23.3621 45.5982 23.3621H48.0884C48.3247 23.3621 48.5459 23.247 48.68 23.053L56.9725 11.0833C57.1709 10.797 56.9672 10.4053 56.6179 10.4053Z" fill="#253B80"/>
<path d="M64.8725 5.61288H59.6907C59.3369 5.61288 59.0353 5.87046 58.98 6.22046L56.8846 19.5061C56.8429 19.7682 57.046 20.0046 57.3104 20.0046H59.9694C60.2164 20.0046 60.4278 19.8242 60.4664 19.5788L61.0611 15.8129C61.1157 15.4621 61.4179 15.2046 61.7717 15.2046H63.4111C66.8247 15.2046 68.7937 13.553 69.3088 10.2803C69.5414 8.84849 69.3179 7.72349 68.6475 6.93561C67.9119 6.07046 66.6066 5.61288 64.8725 5.61288ZM65.4702 10.4652C65.1876 12.3242 63.7672 12.3242 62.3929 12.3242H61.6119L62.1611 8.85228C62.1937 8.64243 62.374 8.48788 62.5869 8.48788H62.9452C63.88 8.48788 64.7634 8.48788 65.2194 9.02122C65.4914 9.3394 65.574 9.81213 65.4702 10.4652Z" fill="#179BD7"/>
<path d="M80.3588 10.4053H77.8792C77.6664 10.4053 77.4853 10.5598 77.4535 10.7697L77.3436 11.4636L77.1694 11.2121C76.6323 10.4326 75.4353 10.172 74.2398 10.172C71.4982 10.172 69.1573 12.2485 68.7012 15.1614C68.4648 16.6144 68.8005 18.0038 69.6247 18.9727C70.3823 19.8636 71.4626 20.2348 72.7497 20.2348C74.9588 20.2348 76.1838 18.8144 76.1838 18.8144L76.0732 19.5038C76.0315 19.7674 76.2345 20.0038 76.5005 20.0038H78.7345C79.0883 20.0038 79.3898 19.7462 79.4451 19.3955L80.7868 10.9038C80.8277 10.6424 80.6247 10.4053 80.3588 10.4053ZM76.9005 15.2341C76.6626 16.6515 75.5361 17.603 74.1012 17.603C73.3823 17.603 72.805 17.372 72.4353 16.9341C72.0686 16.4992 71.9308 15.8803 72.0459 15.1909C72.2709 13.7856 73.4133 12.803 74.8262 12.803C75.5308 12.803 76.1035 13.0371 76.4808 13.4788C76.8603 13.925 77.0103 14.5477 76.9005 15.2341Z" fill="#179BD7"/>
<path d="M83.2838 5.97727L81.1573 19.5061C81.1156 19.7682 81.3187 20.0045 81.5831 20.0045H83.7209C84.0762 20.0045 84.3777 19.747 84.4323 19.3962L86.5293 6.11136C86.5709 5.84924 86.3679 5.61212 86.1035 5.61212H83.7096C83.4982 5.61288 83.3164 5.76742 83.2838 5.97727Z" fill="#179BD7"/>
<path d="M-1.58666 22.5864L-1.19045 20.0697L-2.07302 20.0492H-6.28741L-3.35863 1.47879C-3.34954 1.42273 -3.31999 1.37045 -3.27681 1.33333C-3.23363 1.29621 -3.17832 1.27576 -3.12075 1.27576H3.98531C6.3444 1.27576 7.97243 1.76667 8.82243 2.73561C9.22092 3.19015 9.4747 3.66515 9.59743 4.18788C9.72622 4.73636 9.72849 5.39167 9.60273 6.19091L9.59364 6.24924V6.76136L9.99213 6.98712C10.3277 7.16515 10.5944 7.36894 10.7989 7.60227C11.1399 7.99091 11.3603 8.48485 11.4535 9.07045C11.5497 9.67273 11.5179 10.3894 11.3603 11.2008C11.1785 12.1341 10.8846 12.947 10.4876 13.6121C10.1224 14.225 9.65728 14.7333 9.10501 15.1273C8.57773 15.5015 7.95122 15.7856 7.24289 15.9674C6.55652 16.1462 5.77395 16.2364 4.91561 16.2364H4.36258C3.96713 16.2364 3.58304 16.3788 3.28152 16.6341C2.97925 16.8947 2.77925 17.2508 2.71789 17.6402L2.67622 17.8667L1.97622 22.3023L1.9444 22.4652C1.93607 22.5167 1.92168 22.5424 1.90046 22.5598C1.88152 22.5758 1.85425 22.5864 1.82774 22.5864H-1.58666Z" fill="#253B80"/>
<path d="M10.3694 6.30832C10.3482 6.44393 10.3239 6.58256 10.2967 6.72499C9.35955 11.5363 6.15349 13.1985 2.05879 13.1985H-0.0260561C-0.526814 13.1985 -0.948783 13.5621 -1.02681 14.056L-2.09424 20.8257L-2.39651 22.7447C-2.44727 23.0689 -2.19727 23.3613 -1.87 23.3613H1.82773C2.26561 23.3613 2.63758 23.0432 2.70652 22.6113L2.74288 22.4235L3.43909 18.0053L3.48379 17.7629C3.55197 17.3295 3.9247 17.0113 4.36258 17.0113H4.91561C8.49819 17.0113 11.3027 15.5568 12.1224 11.3477C12.4649 9.58938 12.2876 8.1212 11.3815 7.08862C11.1073 6.77726 10.7671 6.51893 10.3694 6.30832Z" fill="#179BD7"/>
<path d="M9.38911 5.91742C9.24593 5.87575 9.0982 5.83787 8.94669 5.80378C8.79442 5.77045 8.63836 5.7409 8.47775 5.71515C7.91563 5.62424 7.29972 5.58105 6.63987 5.58105H1.07017C0.933053 5.58105 0.80275 5.61212 0.686084 5.66818C0.429266 5.79166 0.238357 6.03484 0.192145 6.33257L-0.992703 13.8371L-1.02679 14.0561C-0.948764 13.5621 -0.526794 13.1985 -0.026037 13.1985H2.05881C6.15351 13.1985 9.35957 11.5356 10.2967 6.72499C10.3247 6.58257 10.3482 6.44393 10.3694 6.30833C10.1323 6.18257 9.87548 6.07499 9.59896 5.98333C9.53078 5.9606 9.46032 5.93863 9.38911 5.91742Z" fill="#222D65"/>
<path d="M0.192138 6.33258C0.23835 6.03485 0.429258 5.79167 0.686077 5.66894C0.803501 5.61288 0.933046 5.58182 1.07017 5.58182H6.63986C7.29971 5.58182 7.91562 5.625 8.47774 5.71591C8.63835 5.74167 8.79441 5.77121 8.94668 5.80455C9.0982 5.83864 9.24592 5.87652 9.38911 5.91818C9.46032 5.93939 9.53077 5.96136 9.59971 5.98333C9.87623 6.075 10.133 6.18333 10.3702 6.30833C10.649 4.5303 10.3679 3.3197 9.40653 2.22349C8.34668 1.01667 6.4338 0.5 3.98608 0.5H-3.11998C-3.61998 0.5 -4.0465 0.863636 -4.12377 1.35833L-7.08362 20.1197C-7.14195 20.4909 -6.85559 20.8258 -6.48135 20.8258H-2.09423L-0.992711 13.8371L0.192138 6.33258Z" fill="#253B80"/>
</g>
<defs>
<clipPath id="clip0_1_732">
<rect width="93.9394" height="25" fill="white" transform="translate(-7.09119 0.5)"/>
</clipPath>
</defs>
</svg>
