<svg width="101" height="26" viewBox="0 0 101 26" fill="none" xmlns="http://www.w3.org/2000/svg">
<path d="M24.8317 16.0253C23.1621 22.7216 16.3798 26.797 9.68267 25.1271C2.98824 23.4576 -1.08709 16.6749 0.583194 9.97888C2.25192 3.28171 9.03424 -0.794001 15.7295 0.875505C22.4262 2.54501 26.5012 9.3285 24.8317 16.0253Z" fill="#F7931A"/>
<path d="M18.2185 11.2207C18.4673 9.55741 17.2009 8.66328 15.4693 8.06681L16.031 5.81371L14.6596 5.47192L14.1127 7.66564C13.7521 7.57579 13.3818 7.49104 13.0139 7.40705L13.5646 5.19888L12.194 4.85709L11.6319 7.10939C11.3334 7.04142 11.0405 6.97425 10.7561 6.90354L10.7577 6.89651L8.86628 6.42425L8.50145 7.88907C8.50145 7.88907 9.51901 8.12227 9.49752 8.13672C10.053 8.27539 10.1534 8.64296 10.1366 8.93436L9.49674 11.5011C9.53502 11.5109 9.58463 11.525 9.63932 11.5468C9.59362 11.5355 9.54479 11.523 9.4944 11.5109L8.59753 15.1065C8.52956 15.2753 8.35731 15.5284 7.96903 15.4323C7.98271 15.4522 6.97217 15.1835 6.97217 15.1835L6.29132 16.7534L8.07606 17.1983C8.40808 17.2815 8.73347 17.3686 9.05377 17.4506L8.48622 19.7295L9.85611 20.0713L10.4182 17.8166C10.7924 17.9182 11.1557 18.012 11.5112 18.1002L10.951 20.3443L12.3225 20.6861L12.89 18.4116C15.2287 18.8541 16.9873 18.6756 17.7275 16.5604C18.3239 14.8573 17.6978 13.8749 16.4673 13.2343C17.3634 13.0277 18.0384 12.4382 18.2185 11.2207ZM15.0849 15.6147C14.6611 17.3178 11.7936 16.3971 10.8639 16.1663L11.617 13.1472C12.5467 13.3792 15.5279 13.8386 15.0849 15.6147ZM15.5091 11.196C15.1224 12.7452 12.7357 11.9581 11.9615 11.7652L12.6443 9.02695C13.4186 9.21992 15.9119 9.58006 15.5091 11.196Z" fill="white"/>
<path d="M36.8393 8.06446C37.8529 8.06446 38.7287 8.24609 39.4646 8.60273C40.2041 8.96288 40.8142 9.44803 41.3037 10.0582C41.7865 10.6714 42.1458 11.3882 42.3779 12.2097C42.6083 13.0335 42.724 13.9191 42.724 14.8671C42.724 16.3233 42.4572 17.6991 41.9185 18.9959C41.3798 20.2947 40.649 21.4213 39.7193 22.3822C38.7904 23.3419 37.6936 24.0986 36.4288 24.6576C35.1659 25.2169 33.7929 25.4966 32.3187 25.4966C32.128 25.4966 31.7929 25.4911 31.3194 25.4814C30.846 25.4716 30.3019 25.4228 29.6925 25.3404C29.0793 25.2548 28.4308 25.1283 27.7461 24.9587C27.0617 24.7923 26.4117 24.5591 25.7996 24.263L31.273 1.26496L36.1752 0.505203L34.2155 8.66641C34.635 8.47735 35.0577 8.33086 35.4795 8.22422C35.9018 8.11914 36.3549 8.06446 36.8393 8.06446ZM32.7272 21.6076C33.4655 21.6076 34.1612 21.426 34.8147 21.0693C35.4702 20.7123 36.0358 20.2303 36.5096 19.6299C36.9834 19.0268 37.3584 18.3475 37.6319 17.5885C37.9053 16.8296 38.0436 16.0378 38.0436 15.214C38.0436 14.2019 37.8744 13.4124 37.5373 12.8417C37.2002 12.2734 36.5764 11.9874 35.6706 11.9874C35.3737 11.9874 34.9913 12.0441 34.5171 12.1452C34.0413 12.2527 33.6155 12.4757 33.2339 12.8113L31.1472 21.4783C31.273 21.5006 31.3843 21.5217 31.4792 21.5416C31.5722 21.5631 31.6749 21.5783 31.7773 21.5889C31.8855 21.601 32.0093 21.6072 32.1589 21.6072C32.3085 21.6072 32.4956 21.6076 32.7272 21.6076Z" fill="#4D4D4D"/>
<path d="M47.8078 25.0564H43.1255L47.0797 8.4172H51.7941L47.8078 25.0564ZM50.0863 6.38988C49.4328 6.38988 48.8402 6.19535 48.3145 5.80552C47.7844 5.41802 47.5219 4.82155 47.5219 4.01765C47.5219 3.57547 47.6118 3.16063 47.7899 2.76923C47.9707 2.37861 48.207 2.04229 48.5031 1.75636C48.7988 1.47277 49.1414 1.24621 49.5305 1.07551C49.9219 0.907541 50.3383 0.823563 50.782 0.823563C51.4351 0.823563 52.0246 1.01809 52.5523 1.40793C53.0781 1.79972 53.3425 2.39619 53.3425 3.19579C53.3425 3.63953 53.2531 4.05593 53.0734 4.44655C52.8949 4.83717 52.6585 5.17349 52.3625 5.45942C52.0691 5.7434 51.7234 5.96918 51.3351 6.13832C50.9433 6.30902 50.5285 6.38988 50.0863 6.38988Z" fill="#4D4D4D"/>
<path d="M55.8976 4.27155L60.8018 3.5118L59.5975 8.41641H64.8498L63.9014 12.2749H58.6807L57.2901 18.0952C57.162 18.5803 57.0894 19.0334 57.069 19.4545C57.046 19.8776 57.0995 20.2408 57.2261 20.5467C57.3519 20.8533 57.578 21.0896 57.9061 21.2568C58.2327 21.4268 58.7003 21.5123 59.3135 21.5123C59.8186 21.5123 60.3108 21.4642 60.7866 21.3689C61.2596 21.2752 61.7389 21.1447 62.224 20.974L62.5733 24.5818C61.9405 24.8138 61.2553 25.0134 60.517 25.1814C59.7776 25.3517 58.9022 25.4337 57.8905 25.4337C56.4359 25.4337 55.3081 25.2177 54.5046 24.7876C53.7023 24.3544 53.1351 23.7627 52.7957 23.0135C52.4609 22.267 52.3113 21.4064 52.3531 20.4369C52.3965 19.4651 52.5429 18.4436 52.7957 17.3678L55.8976 4.27155Z" fill="#4D4D4D"/>
<path d="M64.6435 18.412C64.6435 16.9788 64.8756 15.6272 65.3392 14.362C65.8021 13.0956 66.4689 11.9882 67.3341 11.0379C68.1962 10.0922 69.2466 9.34295 70.4829 8.79296C71.7133 8.24609 73.091 7.97032 74.6094 7.97032C75.5598 7.97032 76.4086 8.06017 77.1554 8.24024C77.9054 8.42188 78.5839 8.65665 79.1976 8.95117L77.5828 12.623C77.1609 12.4519 76.723 12.3011 76.2703 12.1644C75.8172 12.0249 75.2641 11.9578 74.6098 11.9578C73.0469 11.9578 71.8114 12.4964 70.8919 13.5702C69.9759 14.6448 69.5145 16.0913 69.5145 17.9057C69.5145 18.9811 69.7466 19.8506 70.2122 20.5158C70.6755 21.1811 71.5313 21.5119 72.7739 21.5119C73.3871 21.5119 73.9789 21.4479 74.5457 21.3229C75.1168 21.1963 75.6211 21.0369 76.0652 20.8486L76.4148 24.6126C75.8226 24.8423 75.1695 25.0497 74.4531 25.2314C73.7352 25.4068 72.8805 25.4978 71.8895 25.4978C70.5813 25.4978 69.4739 25.3064 68.5681 24.9294C67.6618 24.5466 66.913 24.0384 66.3232 23.3947C65.7302 22.7494 65.3045 21.9959 65.0412 21.1311C64.7779 20.267 64.6435 19.3592 64.6435 18.412Z" fill="#4D4D4D"/>
<path d="M85.444 25.4978C84.3264 25.4978 83.3557 25.3275 82.5323 24.9904C81.7112 24.6533 81.0312 24.1802 80.4933 23.567C79.9546 22.9568 79.5515 22.2338 79.2753 21.4006C78.9992 20.5678 78.8664 19.6455 78.8664 18.635C78.8664 17.3674 79.0699 16.1003 79.4812 14.8366C79.8906 13.5702 80.498 12.4324 81.3019 11.4211C82.0995 10.4082 83.0835 9.58006 84.2421 8.93436C85.3995 8.29297 86.7307 7.97032 88.226 7.97032C89.3232 7.97032 90.2888 8.14102 91.1236 8.47812C91.9544 8.81444 92.6388 9.29139 93.1798 9.90154C93.715 10.5148 94.1216 11.2347 94.395 12.0691C94.6704 12.9003 94.8064 13.8249 94.8064 14.8362C94.8064 16.0999 94.6056 17.367 94.2071 18.6346C93.8083 19.8959 93.2165 21.0365 92.4353 22.0502C91.6556 23.0615 90.6806 23.8892 89.5096 24.5322C88.34 25.1751 86.9838 25.4978 85.444 25.4978ZM87.7842 11.9582C87.0901 11.9582 86.4764 12.1597 85.951 12.5577C85.4237 12.9605 84.9807 13.4667 84.6237 14.0773C84.2628 14.6905 83.9952 15.3593 83.8143 16.0862C83.635 16.8147 83.5472 17.5034 83.5472 18.1577C83.5472 19.2135 83.7175 20.0358 84.0522 20.6276C84.3917 21.2162 85.0014 21.5123 85.8877 21.5123C86.5842 21.5123 87.1948 21.3123 87.7233 20.91C88.2475 20.5104 88.6908 20.0037 89.0506 19.392C89.4092 18.7819 89.6791 18.1112 89.8599 17.3831C90.0369 16.6569 90.1271 15.9643 90.1271 15.3112C90.1271 14.2581 89.9576 13.4339 89.6197 12.8429C89.2822 12.2542 88.6697 11.9582 87.7842 11.9582Z" fill="#4D4D4D"/>
<path d="M99.9086 25.0564H95.2224L99.1766 8.4172H103.893L99.9086 25.0564ZM102.184 6.38988C101.53 6.38988 100.938 6.19535 100.413 5.80552C99.886 5.41802 99.6211 4.82155 99.6211 4.01765C99.6211 3.57547 99.7121 3.16063 99.8906 2.76923C100.069 2.37861 100.307 2.04229 100.603 1.75636C100.897 1.47277 101.243 1.24621 101.631 1.07551C102.02 0.907541 102.437 0.823563 102.879 0.823563C103.534 0.823563 104.125 1.01809 104.651 1.40793C105.178 1.79972 105.444 2.39619 105.444 3.19579C105.444 3.63953 105.35 4.05593 105.173 4.44655C104.996 4.83717 104.758 5.17349 104.463 5.45942C104.166 5.7434 103.825 5.96918 103.436 6.13832C103.044 6.30902 102.628 6.38988 102.184 6.38988Z" fill="#4D4D4D"/>
</svg>
