<svg width="100" height="26" viewBox="0 0 100 26" fill="none" xmlns="http://www.w3.org/2000/svg">
<g clip-path="url(#clip0_1_712)">
<path d="M32.2441 10.2762C32.2441 8.49311 30.5102 6.59936 27.5097 6.59936C24.1403 6.59936 20.4389 9.07108 19.8732 14.0022C19.2953 18.9825 22.3941 21.196 25.5176 21.196C28.6411 21.196 30.2766 19.9786 31.949 18.3554C30.5102 16.5477 28.6534 17.3839 28.2967 17.5684C27.9032 17.7651 27.3991 18.0357 26.3661 18.0357C25.161 18.0357 23.9313 17.4946 23.9313 15.2442C31.6538 14.4818 32.2441 12.0593 32.2441 10.2762ZM28.4197 10.5713C28.3705 11.1247 28.1492 12.0716 24.2387 12.6003C25.0626 9.67364 26.6366 9.45229 27.3622 9.45229C28.0385 9.45229 28.4689 9.98106 28.4197 10.5713ZM15.3356 11.0509C15.3356 11.0509 13.6755 16.2649 13.5402 16.6953C13.491 16.2526 12.2736 6.89449 12.2736 6.89449C9.44529 6.89449 7.93274 8.91121 7.13343 11.0386C7.13343 11.0386 5.11671 16.2649 4.94455 16.7076C4.93225 16.3018 4.63712 11.1001 4.63712 11.1001C4.46496 8.49311 2.07933 6.90679 0.148682 6.90679L2.48513 21.0853C5.44873 21.073 7.04735 19.0686 7.88356 16.9412C7.88356 16.9412 9.66664 12.3298 9.74042 12.1208C9.75272 12.3175 11.0193 21.0853 11.0193 21.0853C13.9952 21.0853 15.5938 19.2039 16.4546 17.1503L20.6234 6.90679C17.6843 6.90679 16.1349 8.91121 15.3356 11.0509ZM43.1639 6.57477C41.3317 6.57477 39.9298 7.57083 38.7493 9.03419V9.02189L39.8068 0.5C37.372 0.5 35.3922 2.6151 35.011 5.76316L33.1664 20.9747C34.5683 20.9747 36.0562 20.5689 36.8555 19.5359C37.5688 20.4582 38.6386 21.196 40.2249 21.196C44.3322 21.196 47.1482 16.4247 47.1482 11.9486C47.1236 7.86596 45.1438 6.57477 43.1639 6.57477ZM42.7827 13.8915C42.3523 16.3878 40.9627 18.0849 39.6224 18.0849C38.2697 18.0849 37.6917 17.4823 37.6917 17.4823C37.95 15.2934 38.1098 13.953 38.6017 12.7971C39.0936 11.6412 40.2618 9.79661 41.4792 9.79661C42.672 9.79661 43.2131 11.3829 42.7827 13.8915ZM57.404 6.90679H54.5387L54.551 6.75922C54.7478 4.89006 55.1905 3.9063 56.6538 3.74643C57.6499 3.64806 58.0926 3.13158 58.2033 2.56591C58.2894 2.12322 58.5599 0.58608 58.5599 0.58608C52.8049 0.549188 50.9972 3.0332 50.5299 6.82071L50.5176 6.90679H50.4561C49.5215 6.90679 48.4886 7.96434 48.3164 9.30472L48.2549 9.79661H50.1733L48.5624 23.1021L48.0705 25.4877C48.132 25.4877 48.2057 25.5 48.2672 25.5C50.9603 25.4016 52.6819 23.2742 53.0631 20.1877L54.3174 9.79661H55.2151C56.1005 9.79661 57.1334 8.91121 57.3179 7.43556L57.404 6.90679ZM72.3081 6.66085C69.0001 6.66085 65.8767 9.09567 64.9175 12.9201C63.9583 16.7445 65.4094 21.2698 70.279 21.2698C75.1364 21.2698 77.9401 16.56 77.9401 12.6372C77.9401 8.73905 75.2962 6.66085 72.3081 6.66085ZM73.6484 13.7686C73.4763 15.5025 72.7139 18.134 70.6234 18.134C68.5205 18.134 68.8157 15.0598 69.0247 13.5964C69.2461 12.0347 70.1192 9.8089 72.0006 9.8089C73.6853 9.8089 73.8452 11.8133 73.6484 13.7686ZM94.283 11.0509C94.283 11.0509 92.6229 16.2649 92.4876 16.6953C92.4384 16.2526 91.221 6.89449 91.221 6.89449C88.3927 6.89449 86.8801 8.91121 86.0808 11.0386C86.0808 11.0386 84.0641 16.2649 83.8919 16.7076C83.8796 16.3018 83.5845 11.1001 83.5845 11.1001C83.4123 8.49311 81.0267 6.90679 79.0961 6.90679L81.4202 21.0853C84.3838 21.073 85.9824 19.0686 86.8186 16.9412C86.8186 16.9412 88.6017 12.3298 88.6632 12.1208C88.6878 12.3175 89.9421 21.0853 89.9421 21.0853C92.918 21.0853 94.5166 19.2039 95.3774 17.1503L99.5461 6.90679C96.6194 6.90679 95.07 8.91121 94.283 11.0509ZM60.1093 0.58608L57.6991 20.0278L57.2072 22.4257C57.2687 22.4257 57.3425 22.438 57.404 22.438C59.9987 22.4011 61.8432 20.1262 62.1875 17.2609L63.5771 6.10748C63.9952 2.70118 61.9662 0.58608 60.1093 0.58608Z" fill="#3A60F8"/>
</g>
<defs>
<clipPath id="clip0_1_712">
<rect width="99.3974" height="25" fill="white" transform="translate(0.148682 0.5)"/>
</clipPath>
</defs>
</svg>
