<svg width="66" height="30" viewBox="0 0 66 30" fill="none" xmlns="http://www.w3.org/2000/svg">
<path d="M39.5894 13.0467H37.9567C37.9232 12.9131 37.8982 12.7581 37.8815 12.5822C37.8483 12.2398 37.8483 11.8949 37.8815 11.5525C37.8982 11.3769 37.9232 11.2221 37.9567 11.0877H42.0257V23.9724C41.822 24.0078 41.6167 24.0328 41.4104 24.0473C41.2055 24.063 41.0002 24.0713 40.7947 24.0722C40.5979 24.0709 40.4011 24.0626 40.2049 24.0473C39.9987 24.0327 39.7934 24.0075 39.5898 23.972V13.0462V13.0465L39.5894 13.0467ZM53.7546 16.287C53.7546 15.818 53.6917 15.3702 53.5664 14.9429C53.4407 14.5162 53.256 14.1438 53.0139 13.8254C52.7706 13.5076 52.461 13.252 52.0842 13.0596C51.7076 12.867 51.2596 12.7706 50.7405 12.7706C49.7192 12.7706 48.9363 13.0808 48.3923 13.7C47.8481 14.3194 47.5176 15.1817 47.4002 16.287H53.7547H53.7546ZM47.3752 18.1454C47.4087 19.5519 47.7729 20.5818 48.4677 21.2345C49.1623 21.8874 50.1881 22.2144 51.5444 22.2144C52.7329 22.2144 53.8632 22.0048 54.9348 21.5862C55.0684 21.8374 55.1771 22.143 55.261 22.503C55.3432 22.8535 55.3937 23.2107 55.4116 23.5703C54.8594 23.8053 54.252 23.9804 53.5911 24.0979C52.9292 24.2147 52.1968 24.2737 51.3936 24.2737C50.2211 24.2737 49.2163 24.1099 48.3796 23.7837C47.5422 23.4569 46.8515 22.9964 46.3073 22.4023C45.7633 21.808 45.3654 21.1047 45.1143 20.2924C44.8633 19.4806 44.7374 18.5889 44.7374 17.6177C44.7374 16.6634 44.8587 15.7716 45.1016 14.9426C45.3439 14.1143 45.7173 13.3941 46.2191 12.783C46.7216 12.1716 47.3535 11.6862 48.1155 11.3262C48.877 10.9662 49.7769 10.786 50.8155 10.786C51.7028 10.786 52.4813 10.9369 53.1513 11.2382C53.8207 11.5395 54.3818 11.954 54.834 12.4814C55.286 13.009 55.6292 13.6369 55.8637 14.3649C56.098 15.0935 56.2156 15.8845 56.2156 16.7387C56.2156 16.9732 56.2067 17.22 56.1901 17.4794C56.1763 17.7014 56.1596 17.9233 56.14 18.1449H47.3746L47.3749 18.1453L47.3752 18.1454ZM58.9546 11.0877C59.1294 11.056 59.3054 11.0309 59.4821 11.0125C59.6491 10.9961 59.8253 10.9876 60.0095 10.9876C60.1937 10.9876 60.3776 10.9961 60.5621 11.0125C60.7461 11.0295 60.9137 11.0547 61.0645 11.0877C61.1143 11.339 61.1646 11.67 61.2146 12.0798C61.2648 12.4901 61.2903 12.8372 61.2903 13.1221C61.6418 12.553 62.1065 12.0587 62.6839 11.64C63.2617 11.2217 64.0025 11.0121 64.9066 11.0121C65.0405 11.0121 65.1785 11.0166 65.3209 11.0249C65.4428 11.0315 65.5646 11.0438 65.6851 11.0623C65.7184 11.2132 65.7441 11.3725 65.7606 11.5397C65.7771 11.7069 65.7855 11.8829 65.7855 12.0669C65.7855 12.268 65.773 12.4775 65.748 12.6947C65.7238 12.9047 65.6946 13.114 65.6602 13.3225C65.5246 13.2891 65.3853 13.2722 65.2456 13.2723H64.9063C64.4543 13.2723 64.0231 13.3352 63.6129 13.4606C63.2023 13.5863 62.8342 13.8083 62.5077 14.1261C62.1815 14.4444 61.9218 14.8799 61.7296 15.4324C61.5366 15.985 61.4406 16.6966 61.4406 17.5672V23.972C61.2369 24.0073 61.0315 24.0326 60.8251 24.0472C60.5994 24.0639 60.3941 24.0721 60.2101 24.0721C60.0047 24.0712 59.7994 24.0629 59.5946 24.0472C59.3801 24.0316 59.1663 24.0065 58.954 23.9721V11.0878L58.9546 11.0877ZM41.3275 4.20786C41.3275 4.50848 41.2732 4.80663 41.1673 5.08795C40.8858 5.19392 40.5876 5.24824 40.2869 5.2483H40.2832C39.9825 5.24834 39.6843 5.19406 39.4029 5.08808C39.2968 4.80671 39.2424 4.50846 39.2424 4.20773V4.2038C39.2424 3.89397 39.2993 3.59725 39.4022 3.32345C39.6837 3.21732 39.982 3.16304 40.2828 3.16323H40.2863C40.5962 3.16323 40.8928 3.22009 41.1666 3.32345C41.2727 3.60483 41.327 3.90309 41.3268 4.2038V4.20773H41.3272L41.3275 4.20786ZM44.3964 3.51092H41.9629L43.6835 1.79018C43.4129 1.41019 43.0807 1.07811 42.7007 0.807643L40.9798 2.52838V0.0947171C40.751 0.0562261 40.5193 0.0368144 40.2873 0.0366821H40.2828C40.0468 0.0366821 39.8156 0.0568568 39.5902 0.0947171V2.52838L37.869 0.807512C37.6794 0.94243 37.5015 1.093 37.3371 1.25764L37.3363 1.25843C37.1719 1.42295 37.0215 1.60085 36.8866 1.79031L38.6078 3.51092H36.1738C36.1738 3.51092 36.1159 3.96812 36.1159 4.20445V4.20734C36.1159 4.44367 36.1359 4.67528 36.1739 4.90074H38.608L36.8864 6.62122C37.1572 7.00116 37.4894 7.3333 37.8694 7.60402L39.5904 5.88341V8.31721C39.8154 8.35494 40.0463 8.37485 40.2821 8.37511H40.288C40.5197 8.3749 40.7511 8.35553 40.9797 8.31721V5.88341L42.7008 7.60441C42.8904 7.46937 43.0684 7.31881 43.2331 7.15428H43.2335C43.3978 6.98958 43.5482 6.81155 43.6831 6.62201L41.9625 4.90087H44.3965C44.4342 4.67555 44.4542 4.44472 44.4542 4.20891V4.20288C44.4542 3.97101 44.4348 3.73978 44.3965 3.51118V3.51092H44.3964ZM0.283813 23.6209L7.06512 13.0719H1.08739C1.03735 12.7706 1.01233 12.436 1.01233 12.0675C1.01233 11.716 1.03774 11.3891 1.08792 11.0876H10.7573L10.8831 11.4147L4.05163 21.9883H10.4559C10.5061 22.3233 10.5314 22.6662 10.5314 23.0177C10.5314 23.3531 10.5062 23.671 10.456 23.9724H0.409578L0.283813 23.6205V23.6209ZM19.8488 17.9192C19.5977 17.886 19.2794 17.8529 18.8944 17.819C18.5093 17.7858 18.1828 17.7688 17.9153 17.7688C16.877 17.7688 16.0858 17.9614 15.542 18.3465C14.9974 18.7319 14.7259 19.3176 14.7259 20.1046C14.7259 20.6069 14.8176 21.0004 15.0019 21.2849C15.1858 21.57 15.4163 21.7872 15.6925 21.938C15.969 22.0886 16.2742 22.1809 16.6089 22.2144C16.9436 22.2478 17.262 22.2645 17.5633 22.2645C17.9484 22.2645 18.346 22.2435 18.7563 22.2016C19.1664 22.16 19.5306 22.097 19.8489 22.0133V17.9192H19.8488ZM19.8488 15.4833C19.8488 14.495 19.5977 13.8085 19.0955 13.4234C18.593 13.0382 17.8647 12.8456 16.9104 12.8456C16.3239 12.8456 15.7759 12.892 15.2653 12.984C14.7601 13.0746 14.261 13.1961 13.7706 13.3478C13.4522 12.7952 13.2937 12.1343 13.2937 11.3636C13.8623 11.1797 14.4901 11.0374 15.1769 10.9369C15.8634 10.8363 16.5247 10.786 17.1612 10.786C18.8355 10.786 20.1079 11.1672 20.9787 11.929C21.8491 12.6914 22.2848 13.9094 22.2848 15.5835V23.6458C21.6984 23.7797 20.9871 23.9177 20.15 24.0601C19.3035 24.2031 18.4466 24.2745 17.5882 24.2737C16.7678 24.2737 16.0266 24.1986 15.3656 24.0478C14.704 23.8968 14.143 23.6545 13.6827 23.3192C13.2218 22.9846 12.8665 22.5575 12.615 22.0386C12.364 21.5194 12.2384 20.8917 12.2384 20.1548C12.2384 19.435 12.3848 18.8028 12.6779 18.2583C12.9658 17.7204 13.3742 17.2563 13.8711 16.9022C14.3733 16.5427 14.9509 16.2744 15.604 16.0989C16.2572 15.9229 16.9434 15.8349 17.6634 15.8349C18.1992 15.8349 18.6387 15.8477 18.9821 15.8729C19.325 15.8978 19.614 15.9271 19.8485 15.9607V15.4834L19.8488 15.4833ZM27.4837 21.8621C27.8008 21.9793 28.1291 22.0635 28.4634 22.1134C28.7982 22.1638 29.2332 22.1889 29.7695 22.1889C30.3721 22.1889 30.9244 22.0928 31.4267 21.9003C31.9292 21.7081 32.3602 21.4106 32.7202 21.0085C33.0802 20.6069 33.3648 20.1007 33.5741 19.4889C33.7833 18.8781 33.8883 18.1542 33.8883 17.3166C33.8883 15.9772 33.6409 14.9139 33.1473 14.1269C32.653 13.34 31.8451 12.9465 30.7237 12.9465C30.3052 12.9465 29.903 13.0217 29.5185 13.1726C29.1328 13.3233 28.7898 13.5494 28.4884 13.8507C28.1871 14.152 27.9443 14.5332 27.7603 14.9936C27.5756 15.4545 27.4839 16.0023 27.4839 16.6387V21.8625V21.8623L27.4837 21.8621ZM24.9973 11.0874C25.1676 11.0539 25.3392 11.0289 25.5121 11.0122C25.6917 10.9956 25.8719 10.9873 26.0522 10.9873C26.2191 10.9873 26.3948 10.996 26.5794 11.0122C26.7633 11.0293 26.9391 11.0545 27.1068 11.0876C27.1233 11.1216 27.1446 11.2258 27.1697 11.4017C27.1946 11.5776 27.2198 11.7659 27.245 11.9666C27.2702 12.1677 27.2952 12.3607 27.3204 12.5443C27.3455 12.7288 27.3581 12.846 27.3581 12.8962C27.5251 12.6286 27.7262 12.3688 27.9607 12.1176C28.1952 11.8664 28.476 11.6404 28.8024 11.4397C29.1289 11.2386 29.497 11.0797 29.9074 10.9623C30.3175 10.8452 30.7738 10.7861 31.2762 10.7861C32.0294 10.7861 32.7286 10.9119 33.3736 11.1631C34.0178 11.4147 34.57 11.8034 35.0308 12.3309C35.491 12.8585 35.8508 13.5283 36.1106 14.3401C36.37 15.1529 36.4997 16.1113 36.4997 17.2162C36.4997 19.4262 35.901 21.1555 34.7036 22.4027C33.5063 23.6502 31.8115 24.2737 29.618 24.2737C29.2495 24.2737 28.873 24.2485 28.4879 24.1983C28.1025 24.1479 27.7679 24.0808 27.4831 23.9975V29.8998C27.2709 29.9343 27.0574 29.9594 26.843 29.9751C26.6167 29.9915 26.4115 30 26.2273 30C26.022 29.9991 25.8168 29.9908 25.6121 29.9751C25.4059 29.9605 25.2005 29.9354 24.9969 29.8998V11.0876L24.9973 11.0874Z" fill="#FF4A00"/>
</svg>
