<svg width="107" height="30" viewBox="0 0 107 30" fill="none" xmlns="http://www.w3.org/2000/svg">
<g clip-path="url(#clip0_1_715)">
<path d="M23.3539 5.682C23.3335 5.53298 23.2033 5.45031 23.0952 5.44131C22.988 5.43231 20.8873 5.40039 20.8873 5.40039C20.8873 5.40039 19.1305 3.6943 18.9569 3.52075C18.7834 3.34719 18.4444 3.39959 18.3126 3.43888C18.311 3.4397 17.9827 3.54121 17.4301 3.71231C17.3376 3.41269 17.2017 3.04429 17.0077 2.67425C16.3823 1.48065 15.4662 0.849467 14.3593 0.847834C14.3577 0.847834 14.3569 0.847834 14.3552 0.847834C14.2783 0.847834 14.2021 0.855202 14.1252 0.861748C14.0925 0.822452 14.0597 0.783979 14.0253 0.746316C13.5431 0.230565 12.9251 -0.020763 12.1842 0.00134071C10.7548 0.0422736 9.33117 1.0746 8.17686 2.90839C7.36475 4.19859 6.74665 5.81956 6.57147 7.07454C4.93005 7.58292 3.78229 7.9382 3.75691 7.94641C2.92843 8.20672 2.90224 8.2321 2.79418 9.01313C2.71395 9.60334 0.546143 26.3662 0.546143 26.3662L18.713 29.5082L26.5868 27.5508C26.5868 27.5508 23.3744 5.83102 23.3539 5.682ZM16.5206 3.99393C16.1023 4.12328 15.6266 4.27064 15.1108 4.43028C15.1002 3.70658 15.0143 2.69964 14.677 1.8294C15.7617 2.03489 16.2955 3.26205 16.5206 3.99393ZM14.1604 4.72499C13.2083 5.01969 12.1694 5.34143 11.1273 5.664C11.4204 4.54161 11.9762 3.42415 12.659 2.69145C12.9128 2.41884 13.2681 2.11511 13.6888 1.94156C14.0843 2.76676 14.1702 3.93499 14.1604 4.72499ZM12.2128 0.952618C12.5485 0.945251 12.8309 1.01893 13.0724 1.17775C12.686 1.37832 12.3127 1.66649 11.9623 2.04225C11.0544 3.01646 10.3586 4.52851 10.081 5.98736C9.2157 6.25505 8.36921 6.51787 7.58985 6.75856C8.0819 4.4622 10.0065 1.01647 12.2128 0.952618Z" fill="#95BF47"/>
<path d="M23.096 5.44214C22.9888 5.43314 20.8881 5.40123 20.8881 5.40123C20.8881 5.40123 19.1313 3.69513 18.9577 3.52158C18.8931 3.4569 18.8055 3.42334 18.7137 3.40942L18.7146 29.5074L26.5876 27.5508C26.5876 27.5508 23.3752 5.83185 23.3547 5.68283C23.3342 5.53382 23.2033 5.45114 23.096 5.44214Z" fill="#5E8E3E"/>
<path d="M14.3495 9.49042L13.4351 12.9116C13.4351 12.9116 12.415 12.4474 11.2059 12.5235C9.43263 12.6357 9.41379 13.754 9.43184 14.0348C9.52843 15.5648 13.5537 15.8989 13.7797 19.4829C13.9574 22.3024 12.284 24.2311 9.87309 24.3834C6.97912 24.566 5.38602 22.8591 5.38602 22.8591L5.9992 20.2508C5.9992 20.2508 7.60292 21.4608 8.88658 21.3798C9.72491 21.3266 10.0245 20.6446 9.99422 20.1624C9.86817 18.1665 6.59025 18.2844 6.38315 15.0049C6.20876 12.2452 8.0213 9.44867 12.0204 9.19652C13.5611 9.09747 14.3495 9.49042 14.3495 9.49042Z" fill="white"/>
<path d="M36.9554 16.6543C36.0501 16.163 35.5848 15.7489 35.5848 15.1797C35.5848 14.4554 36.2311 13.9901 37.2404 13.9901C38.4153 13.9901 39.4644 14.4814 39.4644 14.4814L40.2918 11.9464C40.2918 11.9464 39.531 11.3512 37.2916 11.3512C34.1752 11.3512 32.0153 13.1359 32.0153 15.645C32.0153 17.0676 33.0238 18.154 34.3692 18.9294C35.4557 19.5498 35.8438 19.9899 35.8438 20.6362C35.8438 21.3086 35.3006 21.8518 34.2921 21.8518C32.7891 21.8518 31.3698 21.0755 31.3698 21.0755L30.4904 23.6105C30.4904 23.6105 31.8018 24.4899 34.0079 24.4899C37.2152 24.4899 39.5172 22.9122 39.5172 20.067C39.5164 18.5421 38.3528 17.4557 36.9554 16.6543Z" fill="black"/>
<path d="M49.7329 11.326C48.1551 11.326 46.9136 12.0763 45.957 13.2139L45.9051 13.1879L47.2757 6.0238H43.7062L40.2407 24.2577H43.8101L44.9997 18.0249C45.4649 15.671 46.6805 14.2232 47.8189 14.2232C48.6203 14.2232 48.9313 14.7664 48.9313 15.5427C48.9313 16.0339 48.8793 16.6291 48.7762 17.1204L47.4316 24.2585H51.0012L52.3975 16.8873C52.5529 16.111 52.6566 15.1805 52.6566 14.5593C52.6552 12.5416 51.5948 11.326 49.7329 11.326Z" fill="black"/>
<path d="M60.7247 11.326C56.4307 11.326 53.5866 15.2057 53.5866 19.5247C53.5866 22.2919 55.2932 24.5159 58.5007 24.5159C62.7165 24.5159 65.5616 20.7402 65.5616 16.3173C65.5616 13.7571 64.0611 11.326 60.7247 11.326ZM58.966 21.7754C57.7502 21.7754 57.2329 20.741 57.2329 19.4475C57.2329 17.4045 58.2937 14.0681 60.2334 14.0681C61.5007 14.0681 61.9139 15.1545 61.9139 16.215C61.9139 18.413 60.8545 21.7754 58.966 21.7754Z" fill="black"/>
<path d="M74.6914 11.326C72.2821 11.326 70.9148 13.447 70.9148 13.447H70.8637L71.0707 11.5331H67.9153C67.7604 12.8266 67.4752 14.7916 67.1914 16.2662L64.7083 29.3269H68.2778L69.2599 24.0506H69.3381C69.3381 24.0506 70.0704 24.5159 71.4332 24.5159C75.6229 24.5159 78.3642 20.223 78.3642 15.8772C78.3642 13.473 77.3034 11.326 74.6914 11.326ZM71.2773 21.8266C70.3507 21.8266 69.8024 21.3094 69.8024 21.3094L70.3975 17.973C70.8116 15.7489 71.9752 14.2744 73.217 14.2744C74.3034 14.2744 74.6393 15.2829 74.6393 16.2402C74.6393 18.5421 73.2686 21.8266 71.2773 21.8266Z" fill="black"/>
<path d="M83.4593 6.2049C82.3217 6.2049 81.4163 7.11026 81.4163 8.27381C81.4163 9.33429 82.0886 10.0586 83.0973 10.0586H83.1489C84.2614 10.0586 85.218 9.30827 85.244 7.98965C85.244 6.95514 84.5457 6.2049 83.4593 6.2049Z" fill="black"/>
<path d="M78.4679 24.2576H82.0365L84.4684 11.611H80.8728L78.4679 24.2576Z" fill="black"/>
<path d="M93.5466 11.5851H91.0635L91.1924 10.9899C91.3994 9.77433 92.1238 8.68789 93.3135 8.68789C93.9484 8.68789 94.451 8.86897 94.451 8.86897L95.1494 6.07577C95.1494 6.07577 94.5287 5.76559 93.2092 5.76559C91.9419 5.76559 90.6755 6.12771 89.7179 6.95512C88.5022 7.98963 87.9332 9.48933 87.6489 10.9899L87.5461 11.5851H85.8902L85.3728 14.2752H87.0288L85.1407 24.2585H88.7102L90.5983 14.2752H93.0553L93.5466 11.5851Z" fill="black"/>
<path d="M102.133 11.6111C102.133 11.6111 99.9017 17.2324 98.8999 20.3009H98.8478C98.78 19.3127 97.9685 11.6111 97.9685 11.6111H94.218L96.3657 23.2232C96.4178 23.4814 96.3918 23.6373 96.288 23.8184C95.8734 24.6198 95.1755 25.3961 94.3478 25.9653C93.6755 26.4565 92.9255 26.7667 92.3309 26.9737L93.3136 30C94.038 29.8449 95.5375 29.2497 96.8049 28.0602C98.4347 26.5344 99.9342 24.1805 101.486 20.9732L105.857 11.6102H102.133V11.6111Z" fill="black"/>
</g>
<defs>
<clipPath id="clip0_1_715">
<rect width="105.738" height="30" fill="white" transform="translate(0.546143)"/>
</clipPath>
</defs>
</svg>
