<svg width="46" height="26" viewBox="0 0 46 26" fill="none" xmlns="http://www.w3.org/2000/svg">
<g clip-path="url(#clip0_1_753)">
<path d="M29.847 12.7134V20.0417H27.5221V1.944H33.688C34.424 1.92862 35.1558 2.05915 35.841 2.32806C36.5263 2.59697 37.1516 2.99893 37.6807 3.51074C38.2151 3.99147 38.6405 4.58105 38.9282 5.23983C39.2158 5.89862 39.3592 6.61135 39.3485 7.33012C39.3638 8.05274 39.2227 8.77013 38.9348 9.43311C38.6469 10.0961 38.2191 10.689 37.6807 11.1712C36.6025 12.1993 35.2716 12.7129 33.688 12.7119H29.847V12.7134ZM29.847 4.17209V10.4896H33.7458C34.1732 10.5023 34.5986 10.4256 34.9947 10.2645C35.3907 10.1033 35.7489 9.86132 36.0461 9.55388C36.3417 9.26644 36.5767 8.92262 36.7372 8.54278C36.8977 8.16293 36.9804 7.75475 36.9804 7.3424C36.9804 6.93004 36.8977 6.52186 36.7372 6.14202C36.5767 5.76217 36.3417 5.41835 36.0461 5.13091C35.7526 4.81699 35.3957 4.56904 34.9991 4.40349C34.6026 4.23794 34.1753 4.15857 33.7458 4.17065H29.847V4.17209Z" fill="#5F6368"/>
<path d="M44.7057 7.25504C46.4241 7.25504 47.7805 7.71423 48.7749 8.63261C49.7694 9.551 50.2661 10.8102 50.2651 12.4101V20.0417H48.0414V18.3233H47.9403C46.9776 19.7384 45.6973 20.446 44.0993 20.446C42.7352 20.446 41.5939 20.0417 40.6755 19.233C40.2348 18.8619 39.8824 18.3971 39.6441 17.8725C39.4058 17.3479 39.2875 16.7767 39.298 16.2006C39.298 14.9193 39.7822 13.9003 40.7506 13.1437C41.7191 12.387 43.0119 12.0077 44.6292 12.0058C46.0097 12.0058 47.1466 12.2585 48.0399 12.7639V12.2325C48.0426 11.8398 47.9578 11.4514 47.7917 11.0955C47.6256 10.7395 47.3824 10.4251 47.0797 10.1748C46.4649 9.62013 45.6637 9.31749 44.8357 9.32718C43.5371 9.32718 42.5094 9.87494 41.7528 10.9705L39.7052 9.68096C40.8315 8.06368 42.4983 7.25504 44.7057 7.25504ZM41.6979 16.2512C41.6963 16.547 41.7655 16.839 41.8996 17.1027C42.0337 17.3665 42.229 17.5944 42.469 17.7674C42.9832 18.1718 43.6213 18.3861 44.2754 18.3738C45.2565 18.3722 46.1969 17.9817 46.8905 17.288C47.6606 16.5631 48.0457 15.7126 48.0457 14.7364C47.3208 14.1588 46.31 13.87 45.0133 13.87C44.0689 13.87 43.2815 14.0977 42.6509 14.553C42.0141 15.0151 41.6979 15.5768 41.6979 16.2512Z" fill="#5F6368"/>
<path d="M20.4523 11.1336C20.4532 10.4251 20.3933 9.71788 20.2732 9.01962H10.4685V13.0238H16.0842C15.9693 13.6634 15.7261 14.273 15.3692 14.816C15.0123 15.359 14.5492 15.8241 14.0077 16.1833V18.7825H17.3593C19.3216 16.9732 20.4523 14.2974 20.4523 11.1336Z" fill="#4285F4"/>
<path d="M10.4685 21.2936C13.2742 21.2936 15.6365 20.3724 17.3592 18.784L14.0077 16.1848C13.0749 16.8172 11.8735 17.1782 10.4685 17.1782C7.75663 17.1782 5.45489 15.3501 4.63181 12.8867H1.1792V15.5653C2.04454 17.2872 3.37145 18.7348 5.01178 19.7463C6.65212 20.7578 8.54132 21.2935 10.4685 21.2936Z" fill="#34A853"/>
<path d="M4.63183 12.8867C4.19669 11.5958 4.19669 10.1979 4.63183 8.90699V6.22836H1.17922C0.451263 7.67692 0.0721436 9.27564 0.0721436 10.8968C0.0721436 12.518 0.451263 14.1167 1.17922 15.5653L4.63183 12.8867Z" fill="#FBBC04"/>
<path d="M10.4685 4.61542C11.9511 4.59119 13.3838 5.15139 14.4568 6.17494L17.4242 3.20751C15.5426 1.44017 13.0498 0.469861 10.4685 0.500011C8.54132 0.500099 6.65212 1.03581 5.01178 2.04735C3.37145 3.05888 2.04454 4.50642 1.1792 6.22836L4.63181 8.90699C5.45489 6.44352 7.75663 4.61542 10.4685 4.61542Z" fill="#EA4335"/>
</g>
<defs>
<clipPath id="clip0_1_753">
<rect width="62.9541" height="25" fill="white" transform="translate(0.0716553 0.5)"/>
</clipPath>
</defs>
</svg>
