<svg width="132" height="26" viewBox="0 0 132 26" fill="none" xmlns="http://www.w3.org/2000/svg">
<g clip-path="url(#clip0_1_766)">
<path fill-rule="evenodd" clip-rule="evenodd" d="M52.3163 20.056C47.5006 23.61 40.5188 25.5 34.5063 25.5C26.0804 25.5 18.4925 22.3852 12.7503 17.2004C12.2999 16.7929 12.7015 16.2369 13.2434 16.5522C19.4382 20.1571 27.1 22.3284 35.012 22.3284C40.3497 22.3284 46.2175 21.2203 51.6164 18.9301C52.4307 18.5854 53.1136 19.4669 52.3163 20.056Z" fill="#F79C34"/>
<path fill-rule="evenodd" clip-rule="evenodd" d="M54.3207 17.7674C53.7043 16.9789 50.2492 17.3938 48.6966 17.5798C48.2263 17.6367 48.1532 17.2255 48.577 16.928C51.3337 14.9915 55.8511 15.5503 56.3761 16.1993C56.9047 16.8527 56.2365 21.3819 53.6541 23.5428C53.2561 23.8751 52.8781 23.6979 53.0546 23.2594C53.6363 21.8072 54.9372 18.5573 54.3207 17.7674Z" fill="#F79C34"/>
<path fill-rule="evenodd" clip-rule="evenodd" d="M48.8058 3.24931V1.3682C48.8073 1.08175 49.0229 0.891281 49.2828 0.892019L57.7153 0.891281C57.9847 0.891281 58.2018 1.08692 58.2018 1.36599V2.97911C58.1988 3.25005 57.9707 3.60294 57.5669 4.16329L53.1985 10.4002C54.8198 10.3625 56.5348 10.6054 58.0084 11.433C58.3406 11.6198 58.4299 11.8967 58.4558 12.1676V14.175C58.4558 14.4518 58.1531 14.7715 57.8341 14.6054C55.2391 13.2455 51.7951 13.0971 48.9247 14.6216C48.6316 14.7781 48.3252 14.4621 48.3252 14.1853V12.2769C48.3252 11.972 48.3311 11.4493 48.639 10.9842L53.6991 3.72402L49.2931 3.72328C49.0236 3.72328 48.8073 3.53133 48.8058 3.24931Z" fill="#333E47"/>
<path fill-rule="evenodd" clip-rule="evenodd" d="M18.0466 15.0003H15.4811C15.2367 14.9848 15.0418 14.8017 15.0219 14.567L15.0241 1.39995C15.0241 1.13713 15.2456 0.926719 15.5195 0.926719L17.9085 0.925981C18.1581 0.938531 18.3589 1.12753 18.3744 1.3682V3.08689H18.4231C19.0455 1.42431 20.2186 0.648392 21.7992 0.648392C23.4035 0.648392 24.4097 1.42431 25.1281 3.08689C25.7504 1.42431 27.1635 0.648392 28.6718 0.648392C29.7496 0.648392 30.9227 1.09209 31.6411 2.08949C32.4554 3.19837 32.2885 4.80485 32.2885 6.21789L32.2856 14.5271C32.2856 14.7892 32.0648 15.0003 31.791 15.0003H29.2292C28.9708 14.9841 28.7685 14.7803 28.7685 14.5278L28.7677 7.54751C28.7677 6.99381 28.8157 5.60882 28.6954 5.08243C28.5042 4.19504 27.9298 3.9455 27.1878 3.9455C26.5647 3.9455 25.918 4.36115 25.6545 5.02559C25.3909 5.69151 25.4153 6.79891 25.4153 7.54751V14.5271C25.4153 14.7892 25.1938 15.0003 24.9206 15.0003H22.3581C22.1004 14.9841 21.8974 14.7803 21.8974 14.5278L21.8945 7.54751C21.8945 6.0791 22.1344 3.91892 20.3146 3.91892C18.4704 3.91892 18.5427 6.02373 18.5427 7.54751L18.5412 14.5271C18.5412 14.7892 18.3198 15.0003 18.0466 15.0003Z" fill="#333E47"/>
<path fill-rule="evenodd" clip-rule="evenodd" d="M65.4841 3.33643C63.5926 3.33643 63.473 5.91225 63.473 7.51946C63.473 9.12667 63.4494 12.5626 65.4612 12.5626C67.4486 12.5626 67.5446 9.79185 67.5446 8.10195C67.5446 6.99381 67.4958 5.66345 67.1607 4.61068C66.8735 3.69597 66.2984 3.33643 65.4841 3.33643ZM65.4612 0.648392C69.2684 0.648392 71.3275 3.91892 71.3275 8.07464C71.3275 12.0908 69.0529 15.2779 65.4612 15.2779C61.7248 15.2779 59.6894 12.0081 59.6894 7.93584C59.6894 3.83476 61.7484 0.648392 65.4612 0.648392Z" fill="#333E47"/>
<path fill-rule="evenodd" clip-rule="evenodd" d="M76.2657 15.0003H73.7091C73.4529 14.9841 73.2492 14.7803 73.2492 14.5278L73.2448 1.35639C73.2669 1.11498 73.4795 0.926719 73.7379 0.926719L76.1174 0.925981C76.3418 0.937793 76.5264 1.08988 76.5736 1.29438V3.30837H76.6216C77.3407 1.507 78.3454 0.648392 80.1173 0.648392C81.2668 0.648392 82.3926 1.06404 83.111 2.20023C83.7813 3.253 83.7813 5.02559 83.7813 6.30058V14.5862C83.7533 14.8195 83.5436 15.0003 83.2896 15.0003H80.7182C80.4805 14.9856 80.2893 14.8106 80.2613 14.5862V7.43751C80.2613 5.99641 80.4296 3.89013 78.657 3.89013C78.0346 3.89013 77.4595 4.30578 77.1723 4.9429C76.8128 5.74688 76.7648 6.55011 76.7648 7.43751V14.5271C76.7604 14.7892 76.5389 15.0003 76.2657 15.0003Z" fill="#333E47"/>
<path fill-rule="evenodd" clip-rule="evenodd" d="M44.6693 14.9678C44.5003 15.1199 44.2559 15.1303 44.064 15.0276C43.212 14.3196 43.0592 13.9926 42.5933 13.3178C41.1854 14.7523 40.188 15.1827 38.3638 15.1827C36.2043 15.1827 34.524 13.8494 34.524 11.1842C34.524 9.10156 35.6529 7.68556 37.2601 6.99159C38.6517 6.3803 40.5956 6.26956 42.0839 6.10272V5.76976C42.0839 5.15773 42.1319 4.43718 41.7716 3.90932C41.4593 3.43683 40.8599 3.24266 40.332 3.24266C39.3531 3.24266 38.4841 3.74395 38.27 4.78269C38.225 5.01377 38.0567 5.24337 37.8248 5.25518L35.3376 4.98571C35.128 4.93773 34.8947 4.7694 34.9545 4.44899C35.5192 1.47451 38.1755 0.547242 40.5897 0.522141H40.7801C42.016 0.537644 43.5944 0.87651 44.5556 1.79861C45.8041 2.96507 45.683 4.51987 45.683 6.21419V10.2104C45.683 11.4131 46.1828 11.9402 46.6516 12.5877C46.8162 12.8217 46.8524 13.0986 46.6435 13.2698C46.1193 13.7091 45.1883 14.5175 44.6767 14.9738L44.6693 14.9678ZM42.0839 8.71323C42.0839 9.71285 42.1075 10.5456 41.604 11.4345C41.1958 12.1558 40.5476 12.6002 39.8278 12.6002C38.8444 12.6002 38.2685 11.8509 38.2685 10.7398C38.2685 8.55451 40.2279 8.15732 42.0839 8.15732V8.71323Z" fill="#333E47"/>
<path fill-rule="evenodd" clip-rule="evenodd" d="M11.0404 14.9678C10.8706 15.1199 10.6255 15.1303 10.4343 15.0276C9.58162 14.3196 9.4288 13.9926 8.96369 13.3178C7.55507 14.7523 6.55841 15.1827 4.73415 15.1827C2.57471 15.1827 0.894409 13.8494 0.894409 11.1842C0.894409 9.10156 2.02175 7.68556 3.63043 6.99159C5.02207 6.3803 6.96593 6.26956 8.45354 6.10272V5.76976C8.45354 5.15773 8.50227 4.43718 8.142 3.90932C7.82971 3.43683 7.22949 3.24266 6.70237 3.24266C5.72343 3.24266 4.85301 3.74395 4.64039 4.78269C4.59609 5.01377 4.42703 5.24337 4.19447 5.25518L1.70798 4.98571C1.49757 4.93773 1.26428 4.7694 1.32482 4.44899C1.88812 1.47451 4.54515 0.547242 6.96003 0.522141H7.1505C8.38636 0.537644 9.96478 0.87651 10.926 1.79861C12.1737 2.96507 12.0533 4.51987 12.0533 6.21419V10.2104C12.0533 11.4131 12.5532 11.9402 13.022 12.5877C13.1851 12.8217 13.2228 13.0986 13.0138 13.2698C12.4897 13.7091 11.558 14.5175 11.0463 14.9738L11.0404 14.9678ZM8.45354 8.71323C8.45354 9.71285 8.47791 10.5456 7.97367 11.4345C7.56614 12.1558 6.91795 12.6002 6.19739 12.6002C5.21402 12.6002 4.63817 11.8509 4.63817 10.7398C4.63817 8.55451 6.59828 8.15732 8.45354 8.15732V8.71323Z" fill="#333E47"/>
<path fill-rule="evenodd" clip-rule="evenodd" d="M118.85 19.7238C118.85 19.3901 118.85 19.0904 118.85 18.7567C118.85 18.4813 118.985 18.2915 119.272 18.3085C119.808 18.3846 120.566 18.4606 121.105 18.3499C121.807 18.2037 122.312 17.7054 122.61 17.0225C123.03 16.0612 123.308 15.2861 123.484 14.7774L118.147 1.55647C118.057 1.33203 118.03 0.915649 118.478 0.915649H120.344C120.7 0.915649 120.845 1.14156 120.924 1.36304L124.794 12.1019L128.487 1.36304C128.563 1.14304 128.714 0.915649 129.067 0.915649H130.826C131.271 0.915649 131.246 1.33129 131.158 1.55647L125.863 15.1901C125.178 17.0047 124.266 19.8951 122.21 20.3971C121.18 20.6666 119.88 20.5691 119.116 20.2494C118.924 20.1527 118.85 19.8943 118.85 19.7238Z" fill="#333E47"/>
<path fill-rule="evenodd" clip-rule="evenodd" d="M116.361 14.1949C116.361 14.4407 116.16 14.6423 115.912 14.6423H114.597C114.312 14.6423 114.118 14.437 114.082 14.1949L113.95 13.2994C113.345 13.811 112.603 14.2606 111.799 14.5736C110.251 15.1746 108.468 15.2742 106.956 14.3455C105.862 13.6744 105.282 12.3625 105.282 11.0093C105.282 9.96239 105.605 8.92439 106.32 8.17061C107.275 7.14073 108.658 6.63502 110.329 6.63502C111.338 6.63502 112.782 6.75388 113.833 7.09717V5.29506C113.833 3.46267 113.061 2.66977 111.027 2.66977C109.472 2.66977 108.283 2.90454 106.628 3.41912C106.363 3.42797 106.208 3.22643 106.208 2.98058V1.95291C106.208 1.70633 106.418 1.46787 106.646 1.39552C107.828 0.880209 109.503 0.559062 111.283 0.5C113.603 0.5 116.361 1.02343 116.361 4.59222V14.1949ZM113.833 11.5637V8.84465C112.95 8.60324 111.489 8.50284 110.923 8.50284C110.03 8.50284 109.052 8.71398 108.541 9.26399C108.159 9.66709 107.986 10.2459 107.986 10.8055C107.986 11.529 108.236 12.2547 108.821 12.6135C109.5 13.0749 110.554 13.0188 111.544 12.7375C112.496 12.4673 113.389 11.9897 113.833 11.5637Z" fill="#333E47"/>
<path fill-rule="evenodd" clip-rule="evenodd" d="M96.9631 2.71037C99.8822 2.71037 100.677 5.00565 100.677 7.63389C100.694 9.40574 100.368 10.9856 99.4504 11.89C98.7638 12.567 97.9967 12.7516 96.842 12.7516C95.8144 12.7516 94.4626 12.2156 93.4527 11.4692V3.95436C94.504 3.14669 95.8454 2.71037 96.9631 2.71037ZM93.0053 20.1955H91.243C90.9964 20.1955 90.7949 19.994 90.7949 19.7481C90.7949 13.6279 90.7949 7.50691 90.7949 1.38666C90.7949 1.14081 90.9964 0.939267 91.243 0.939267H92.5918C92.8753 0.939267 93.0695 1.14451 93.1057 1.38666L93.2474 2.34862C94.5106 1.22719 96.137 0.508118 97.6866 0.508118C102.027 0.508118 103.454 4.08429 103.454 7.80295C103.454 11.7815 101.271 14.9782 97.5788 14.9782C96.024 14.9782 94.5704 14.4046 93.4527 13.4079V19.7481C93.4527 19.994 93.2511 20.1955 93.0053 20.1955Z" fill="#333E47"/>
</g>
<defs>
<clipPath id="clip0_1_766">
<rect width="130.316" height="25" fill="white" transform="translate(0.894409 0.5)"/>
</clipPath>
</defs>
</svg>
