<svg width="42" height="26" viewBox="0 0 42 26" fill="none" xmlns="http://www.w3.org/2000/svg">
<g clip-path="url(#clip0_1_744)">
<path d="M26.3959 3.1619H15.5067V22.7254H26.3959V3.1619Z" fill="#FF5A00"/>
<path d="M16.2316 12.9436C16.2316 8.96891 18.1001 5.4412 20.9674 3.16189C18.8572 1.50274 16.1953 0.5 13.2918 0.5C6.4136 0.5 0.848206 6.0654 0.848206 12.9436C0.848206 19.8218 6.4136 25.3872 13.2918 25.3872C16.1953 25.3872 18.8572 24.3845 20.9674 22.7254C18.0961 20.4783 16.2316 16.9183 16.2316 12.9436Z" fill="#EB001B"/>
<path d="M41.0866 12.9436C41.0866 19.8218 35.5212 25.3872 28.643 25.3872C25.7395 25.3872 23.0776 24.3845 20.9674 22.7254C23.8709 20.442 25.7032 16.9183 25.7032 12.9436C25.7032 8.96891 23.8347 5.4412 20.9674 3.16189C23.0736 1.50274 25.7354 0.5 28.639 0.5C35.5212 0.5 41.0866 6.10164 41.0866 12.9436Z" fill="#F79E1B"/>
</g>
<defs>
<clipPath id="clip0_1_744">
<rect width="40.625" height="25" fill="white" transform="translate(0.848206 0.5)"/>
</clipPath>
</defs>
</svg>
