<svg width="52" height="26" viewBox="0 0 52 26" fill="none" xmlns="http://www.w3.org/2000/svg">
<g clip-path="url(#clip0_1_763)">
<path d="M2.13224 3.72312C1.41863 4.56755 0.276862 5.23359 -0.864908 5.13844C-1.00763 3.99667 -0.448638 2.78354 0.205502 2.03425C0.919107 1.16603 2.16792 0.547574 3.17886 0.5C3.29779 1.68934 2.83395 2.8549 2.13224 3.72312ZM3.16697 5.36442C1.51378 5.26927 0.0984602 6.304 -0.686506 6.304C-1.48337 6.304 -2.6846 5.41199 -3.99288 5.43578C-5.69364 5.45956 -7.27547 6.42293 -8.14369 7.95718C-9.92771 11.0257 -8.60753 15.569 -6.88299 18.0666C-6.03855 19.3035 -5.02761 20.6594 -3.69555 20.6118C-2.43484 20.5642 -1.93532 19.7912 -0.412958 19.7912C1.12129 19.7912 1.56135 20.6118 2.89342 20.588C4.27306 20.5642 5.14128 19.3511 5.98571 18.1142C6.94908 16.7108 7.34156 15.343 7.36535 15.2716C7.34156 15.2479 4.70122 14.2369 4.67743 11.1922C4.65365 8.647 6.75878 7.43387 6.85393 7.36251C5.66459 5.60228 3.80921 5.41199 3.16697 5.36442ZM12.7174 1.91532V20.4572H15.5956V14.118H19.5799C23.2193 14.118 25.7764 11.6204 25.7764 8.00476C25.7764 4.38915 23.2669 1.91532 19.6751 1.91532H12.7174ZM15.5956 4.34158H18.9139C21.4115 4.34158 22.8387 5.67364 22.8387 8.01665C22.8387 10.3597 21.4115 11.7036 18.902 11.7036H15.5956V4.34158ZM31.0333 20.5999C32.8411 20.5999 34.5181 19.6841 35.2792 18.2331H35.3387V20.4572H38.0028V11.2279C38.0028 8.55186 35.862 6.82731 32.5675 6.82731C29.5109 6.82731 27.2512 8.57564 27.1679 10.9781H29.7607C29.9748 9.83635 31.0333 9.08706 32.4843 9.08706C34.2445 9.08706 35.2317 9.90771 35.2317 11.4182V12.441L31.6399 12.6551C28.2978 12.8573 26.49 14.225 26.49 16.6037C26.49 19.0062 28.3573 20.5999 31.0333 20.5999ZM31.8064 18.3996C30.2721 18.3996 29.2968 17.6622 29.2968 16.5324C29.2968 15.3668 30.2364 14.6889 32.0323 14.5818L35.2317 14.3796V15.4263C35.2317 17.1627 33.7569 18.3996 31.8064 18.3996ZM41.559 25.5C44.3658 25.5 45.686 24.4296 46.8397 21.1827L51.8944 7.00571H48.9686L45.579 17.9596H45.5195L42.1299 7.00571H39.1208L43.9971 20.5048L43.7355 21.3254C43.2954 22.7169 42.5818 23.2521 41.3092 23.2521C41.0832 23.2521 40.6432 23.2284 40.4648 23.2046V25.4286C40.6313 25.4762 41.3449 25.5 41.559 25.5Z" fill="black"/>
</g>
<defs>
<clipPath id="clip0_1_763">
<rect width="60.8944" height="25" fill="white" transform="translate(-9 0.5)"/>
</clipPath>
</defs>
</svg>
