<svg width="136" height="31" viewBox="0 0 136 31" fill="none" xmlns="http://www.w3.org/2000/svg">
<path d="M9.488 23.884C8.29333 23.884 7.248 23.66 6.352 23.212C5.456 22.764 4.73067 22.1347 4.176 21.324L3.728 23.5H0.0800002V0.459999H4.176V9.9C4.688 9.196 5.36 8.57733 6.192 8.044C7.04533 7.51067 8.144 7.244 9.488 7.244C10.9813 7.244 12.3147 7.60667 13.488 8.332C14.6613 9.05733 15.5893 10.0493 16.272 11.308C16.9547 12.5667 17.296 13.996 17.296 15.596C17.296 17.196 16.9547 18.6253 16.272 19.884C15.5893 21.1213 14.6613 22.1027 13.488 22.828C12.3147 23.532 10.9813 23.884 9.488 23.884ZM8.624 20.3C9.92533 20.3 11.0027 19.8627 11.856 18.988C12.7093 18.1133 13.136 16.9827 13.136 15.596C13.136 14.2093 12.7093 13.068 11.856 12.172C11.0027 11.276 9.92533 10.828 8.624 10.828C7.30133 10.828 6.21333 11.276 5.36 12.172C4.528 13.0467 4.112 14.1773 4.112 15.564C4.112 16.9507 4.528 18.092 5.36 18.988C6.21333 19.8627 7.30133 20.3 8.624 20.3ZM25.467 23.884C24.1017 23.884 22.9817 23.6707 22.107 23.244C21.2323 22.796 20.5817 22.2093 20.155 21.484C19.7283 20.7587 19.515 19.9587 19.515 19.084C19.515 17.612 20.091 16.4173 21.243 15.5C22.395 14.5827 24.123 14.124 26.427 14.124H30.459V13.74C30.459 12.652 30.1497 11.852 29.531 11.34C28.9123 10.828 28.1443 10.572 27.227 10.572C26.395 10.572 25.6697 10.7747 25.051 11.18C24.4323 11.564 24.0483 12.14 23.899 12.908H19.899C20.0057 11.756 20.3897 10.7533 21.051 9.9C21.7337 9.04667 22.6083 8.396 23.675 7.948C24.7417 7.47867 25.9363 7.244 27.259 7.244C29.5203 7.244 31.3017 7.80933 32.603 8.94C33.9043 10.0707 34.555 11.6707 34.555 13.74V23.5H31.067L30.683 20.94C30.2137 21.7933 29.5523 22.4973 28.699 23.052C27.867 23.6067 26.7897 23.884 25.467 23.884ZM26.395 20.684C27.5683 20.684 28.475 20.3 29.115 19.532C29.7763 18.764 30.1923 17.8147 30.363 16.684H26.875C25.787 16.684 25.0083 16.8867 24.539 17.292C24.0697 17.676 23.835 18.156 23.835 18.732C23.835 19.3507 24.0697 19.8307 24.539 20.172C25.0083 20.5133 25.627 20.684 26.395 20.684ZM37.5038 23.5V7.628H41.1198L41.4398 10.316C41.9304 9.37733 42.6344 8.63067 43.5518 8.076C44.4904 7.52133 45.5891 7.244 46.8478 7.244C48.8104 7.244 50.3358 7.86267 51.4238 9.1C52.5118 10.3373 53.0558 12.1507 53.0558 14.54V23.5H48.9598V14.924C48.9598 13.5587 48.6824 12.5133 48.1278 11.788C47.5731 11.0627 46.7091 10.7 45.5358 10.7C44.3838 10.7 43.4344 11.1053 42.6878 11.916C41.9624 12.7267 41.5998 13.8573 41.5998 15.308V23.5H37.5038ZM68.6205 30.54V21.228C68.1085 21.932 67.4258 22.5507 66.5725 23.084C65.7405 23.6173 64.6525 23.884 63.3085 23.884C61.8152 23.884 60.4818 23.5213 59.3085 22.796C58.1352 22.0707 57.2072 21.0787 56.5245 19.82C55.8418 18.5613 55.5005 17.132 55.5005 15.532C55.5005 13.932 55.8418 12.5133 56.5245 11.276C57.2072 10.0173 58.1352 9.036 59.3085 8.332C60.4818 7.60667 61.8152 7.244 63.3085 7.244C64.5032 7.244 65.5485 7.468 66.4445 7.916C67.3405 8.364 68.0658 8.99333 68.6205 9.804L69.0685 7.628H72.7165V30.54H68.6205ZM64.1725 20.3C65.4952 20.3 66.5725 19.8627 67.4045 18.988C68.2578 18.092 68.6845 16.9507 68.6845 15.564C68.6845 14.1773 68.2578 13.0467 67.4045 12.172C66.5725 11.276 65.4952 10.828 64.1725 10.828C62.8712 10.828 61.7938 11.2653 60.9405 12.14C60.0872 13.0147 59.6605 14.1453 59.6605 15.532C59.6605 16.9187 60.0872 18.06 60.9405 18.956C61.7938 19.852 62.8712 20.3 64.1725 20.3ZM81.8795 23.884C79.8955 23.884 78.3595 23.2653 77.2715 22.028C76.2048 20.7907 75.6715 18.9773 75.6715 16.588V7.628H79.7355V16.204C79.7355 17.5693 80.0128 18.6147 80.5675 19.34C81.1222 20.0653 81.9968 20.428 83.1915 20.428C84.3222 20.428 85.2502 20.0227 85.9755 19.212C86.7222 18.4013 87.0955 17.2707 87.0955 15.82V7.628H91.1915V23.5H87.5755L87.2555 20.812C86.7648 21.7507 86.0502 22.4973 85.1115 23.052C84.1942 23.6067 83.1168 23.884 81.8795 23.884ZM102.148 23.884C100.548 23.884 99.1296 23.5427 97.8922 22.86C96.6549 22.1773 95.6842 21.2173 94.9802 19.98C94.2762 18.7427 93.9242 17.3133 93.9242 15.692C93.9242 14.0493 94.2656 12.588 94.9482 11.308C95.6522 10.028 96.6122 9.036 97.8282 8.332C99.0656 7.60667 100.516 7.244 102.18 7.244C103.738 7.244 105.114 7.58533 106.308 8.268C107.503 8.95067 108.431 9.88933 109.092 11.084C109.775 12.2573 110.116 13.5693 110.116 15.02C110.116 15.2547 110.106 15.5 110.084 15.756C110.084 16.012 110.074 16.2787 110.052 16.556H97.9882C98.0736 17.7933 98.5002 18.764 99.2682 19.468C100.058 20.172 101.007 20.524 102.116 20.524C102.948 20.524 103.642 20.3427 104.196 19.98C104.772 19.596 105.199 19.1053 105.476 18.508H109.636C109.338 19.5107 108.836 20.428 108.132 21.26C107.45 22.0707 106.596 22.7107 105.572 23.18C104.57 23.6493 103.428 23.884 102.148 23.884ZM102.18 10.572C101.178 10.572 100.292 10.86 99.5242 11.436C98.7562 11.9907 98.2656 12.844 98.0522 13.996H105.956C105.892 12.9507 105.508 12.1187 104.804 11.5C104.1 10.8813 103.226 10.572 102.18 10.572ZM120.313 23.884C118.713 23.884 117.295 23.5427 116.057 22.86C114.82 22.1773 113.849 21.2173 113.145 19.98C112.441 18.7427 112.089 17.3133 112.089 15.692C112.089 14.0493 112.431 12.588 113.113 11.308C113.817 10.028 114.777 9.036 115.993 8.332C117.231 7.60667 118.681 7.244 120.345 7.244C121.903 7.244 123.279 7.58533 124.473 8.268C125.668 8.95067 126.596 9.88933 127.257 11.084C127.94 12.2573 128.281 13.5693 128.281 15.02C128.281 15.2547 128.271 15.5 128.249 15.756C128.249 16.012 128.239 16.2787 128.217 16.556H116.153C116.239 17.7933 116.665 18.764 117.433 19.468C118.223 20.172 119.172 20.524 120.281 20.524C121.113 20.524 121.807 20.3427 122.361 19.98C122.937 19.596 123.364 19.1053 123.641 18.508H127.801C127.503 19.5107 127.001 20.428 126.297 21.26C125.615 22.0707 124.761 22.7107 123.737 23.18C122.735 23.6493 121.593 23.884 120.313 23.884ZM120.345 10.572C119.343 10.572 118.457 10.86 117.689 11.436C116.921 11.9907 116.431 12.844 116.217 13.996H124.121C124.057 12.9507 123.673 12.1187 122.969 11.5C122.265 10.8813 121.391 10.572 120.345 10.572ZM132.526 23.724C131.78 23.724 131.161 23.4893 130.67 23.02C130.201 22.5507 129.966 21.9853 129.966 21.324C129.966 20.6413 130.201 20.0653 130.67 19.596C131.161 19.1267 131.78 18.892 132.526 18.892C133.273 18.892 133.881 19.1267 134.35 19.596C134.841 20.0653 135.086 20.6413 135.086 21.324C135.086 21.9853 134.841 22.5507 134.35 23.02C133.881 23.4893 133.273 23.724 132.526 23.724Z" fill="#5BB5A2"/>
</svg>
