<svg width="136" height="32" viewBox="0 0 136 32" fill="none" xmlns="http://www.w3.org/2000/svg">
<path d="M9.488 24.384C8.29333 24.384 7.248 24.16 6.352 23.712C5.456 23.264 4.73067 22.6347 4.176 21.824L3.728 24H0.0800002V0.959999H4.176V10.4C4.688 9.696 5.36 9.07733 6.192 8.544C7.04533 8.01067 8.144 7.744 9.488 7.744C10.9813 7.744 12.3147 8.10667 13.488 8.832C14.6613 9.55733 15.5893 10.5493 16.272 11.808C16.9547 13.0667 17.296 14.496 17.296 16.096C17.296 17.696 16.9547 19.1253 16.272 20.384C15.5893 21.6213 14.6613 22.6027 13.488 23.328C12.3147 24.032 10.9813 24.384 9.488 24.384ZM8.624 20.8C9.92533 20.8 11.0027 20.3627 11.856 19.488C12.7093 18.6133 13.136 17.4827 13.136 16.096C13.136 14.7093 12.7093 13.568 11.856 12.672C11.0027 11.776 9.92533 11.328 8.624 11.328C7.30133 11.328 6.21333 11.776 5.36 12.672C4.528 13.5467 4.112 14.6773 4.112 16.064C4.112 17.4507 4.528 18.592 5.36 19.488C6.21333 20.3627 7.30133 20.8 8.624 20.8ZM25.467 24.384C24.1017 24.384 22.9817 24.1707 22.107 23.744C21.2323 23.296 20.5817 22.7093 20.155 21.984C19.7283 21.2587 19.515 20.4587 19.515 19.584C19.515 18.112 20.091 16.9173 21.243 16C22.395 15.0827 24.123 14.624 26.427 14.624H30.459V14.24C30.459 13.152 30.1497 12.352 29.531 11.84C28.9123 11.328 28.1443 11.072 27.227 11.072C26.395 11.072 25.6697 11.2747 25.051 11.68C24.4323 12.064 24.0483 12.64 23.899 13.408H19.899C20.0057 12.256 20.3897 11.2533 21.051 10.4C21.7337 9.54667 22.6083 8.896 23.675 8.448C24.7417 7.97867 25.9363 7.744 27.259 7.744C29.5203 7.744 31.3017 8.30933 32.603 9.44C33.9043 10.5707 34.555 12.1707 34.555 14.24V24H31.067L30.683 21.44C30.2137 22.2933 29.5523 22.9973 28.699 23.552C27.867 24.1067 26.7897 24.384 25.467 24.384ZM26.395 21.184C27.5683 21.184 28.475 20.8 29.115 20.032C29.7763 19.264 30.1923 18.3147 30.363 17.184H26.875C25.787 17.184 25.0083 17.3867 24.539 17.792C24.0697 18.176 23.835 18.656 23.835 19.232C23.835 19.8507 24.0697 20.3307 24.539 20.672C25.0083 21.0133 25.627 21.184 26.395 21.184ZM37.5038 24V8.128H41.1198L41.4398 10.816C41.9304 9.87733 42.6344 9.13067 43.5518 8.576C44.4904 8.02133 45.5891 7.744 46.8478 7.744C48.8104 7.744 50.3358 8.36267 51.4238 9.6C52.5118 10.8373 53.0558 12.6507 53.0558 15.04V24H48.9598V15.424C48.9598 14.0587 48.6824 13.0133 48.1278 12.288C47.5731 11.5627 46.7091 11.2 45.5358 11.2C44.3838 11.2 43.4344 11.6053 42.6878 12.416C41.9624 13.2267 41.5998 14.3573 41.5998 15.808V24H37.5038ZM68.6205 31.04V21.728C68.1085 22.432 67.4258 23.0507 66.5725 23.584C65.7405 24.1173 64.6525 24.384 63.3085 24.384C61.8152 24.384 60.4818 24.0213 59.3085 23.296C58.1352 22.5707 57.2072 21.5787 56.5245 20.32C55.8418 19.0613 55.5005 17.632 55.5005 16.032C55.5005 14.432 55.8418 13.0133 56.5245 11.776C57.2072 10.5173 58.1352 9.536 59.3085 8.832C60.4818 8.10667 61.8152 7.744 63.3085 7.744C64.5032 7.744 65.5485 7.968 66.4445 8.416C67.3405 8.864 68.0658 9.49333 68.6205 10.304L69.0685 8.128H72.7165V31.04H68.6205ZM64.1725 20.8C65.4952 20.8 66.5725 20.3627 67.4045 19.488C68.2578 18.592 68.6845 17.4507 68.6845 16.064C68.6845 14.6773 68.2578 13.5467 67.4045 12.672C66.5725 11.776 65.4952 11.328 64.1725 11.328C62.8712 11.328 61.7938 11.7653 60.9405 12.64C60.0872 13.5147 59.6605 14.6453 59.6605 16.032C59.6605 17.4187 60.0872 18.56 60.9405 19.456C61.7938 20.352 62.8712 20.8 64.1725 20.8ZM81.8795 24.384C79.8955 24.384 78.3595 23.7653 77.2715 22.528C76.2048 21.2907 75.6715 19.4773 75.6715 17.088V8.128H79.7355V16.704C79.7355 18.0693 80.0128 19.1147 80.5675 19.84C81.1222 20.5653 81.9968 20.928 83.1915 20.928C84.3222 20.928 85.2502 20.5227 85.9755 19.712C86.7222 18.9013 87.0955 17.7707 87.0955 16.32V8.128H91.1915V24H87.5755L87.2555 21.312C86.7648 22.2507 86.0502 22.9973 85.1115 23.552C84.1942 24.1067 83.1168 24.384 81.8795 24.384ZM102.148 24.384C100.548 24.384 99.1296 24.0427 97.8922 23.36C96.6549 22.6773 95.6842 21.7173 94.9802 20.48C94.2762 19.2427 93.9242 17.8133 93.9242 16.192C93.9242 14.5493 94.2656 13.088 94.9482 11.808C95.6522 10.528 96.6122 9.536 97.8282 8.832C99.0656 8.10667 100.516 7.744 102.18 7.744C103.738 7.744 105.114 8.08533 106.308 8.768C107.503 9.45067 108.431 10.3893 109.092 11.584C109.775 12.7573 110.116 14.0693 110.116 15.52C110.116 15.7547 110.106 16 110.084 16.256C110.084 16.512 110.074 16.7787 110.052 17.056H97.9882C98.0736 18.2933 98.5002 19.264 99.2682 19.968C100.058 20.672 101.007 21.024 102.116 21.024C102.948 21.024 103.642 20.8427 104.196 20.48C104.772 20.096 105.199 19.6053 105.476 19.008H109.636C109.338 20.0107 108.836 20.928 108.132 21.76C107.45 22.5707 106.596 23.2107 105.572 23.68C104.57 24.1493 103.428 24.384 102.148 24.384ZM102.18 11.072C101.178 11.072 100.292 11.36 99.5242 11.936C98.7562 12.4907 98.2656 13.344 98.0522 14.496H105.956C105.892 13.4507 105.508 12.6187 104.804 12C104.1 11.3813 103.226 11.072 102.18 11.072ZM120.313 24.384C118.713 24.384 117.295 24.0427 116.057 23.36C114.82 22.6773 113.849 21.7173 113.145 20.48C112.441 19.2427 112.089 17.8133 112.089 16.192C112.089 14.5493 112.431 13.088 113.113 11.808C113.817 10.528 114.777 9.536 115.993 8.832C117.231 8.10667 118.681 7.744 120.345 7.744C121.903 7.744 123.279 8.08533 124.473 8.768C125.668 9.45067 126.596 10.3893 127.257 11.584C127.94 12.7573 128.281 14.0693 128.281 15.52C128.281 15.7547 128.271 16 128.249 16.256C128.249 16.512 128.239 16.7787 128.217 17.056H116.153C116.239 18.2933 116.665 19.264 117.433 19.968C118.223 20.672 119.172 21.024 120.281 21.024C121.113 21.024 121.807 20.8427 122.361 20.48C122.937 20.096 123.364 19.6053 123.641 19.008H127.801C127.503 20.0107 127.001 20.928 126.297 21.76C125.615 22.5707 124.761 23.2107 123.737 23.68C122.735 24.1493 121.593 24.384 120.313 24.384ZM120.345 11.072C119.343 11.072 118.457 11.36 117.689 11.936C116.921 12.4907 116.431 13.344 116.217 14.496H124.121C124.057 13.4507 123.673 12.6187 122.969 12C122.265 11.3813 121.391 11.072 120.345 11.072ZM132.526 24.224C131.78 24.224 131.161 23.9893 130.67 23.52C130.201 23.0507 129.966 22.4853 129.966 21.824C129.966 21.1413 130.201 20.5653 130.67 20.096C131.161 19.6267 131.78 19.392 132.526 19.392C133.273 19.392 133.881 19.6267 134.35 20.096C134.841 20.5653 135.086 21.1413 135.086 21.824C135.086 22.4853 134.841 23.0507 134.35 23.52C133.881 23.9893 133.273 24.224 132.526 24.224Z" fill="#5BB5A2"/>
</svg>
