<svg width="50" height="51" viewBox="0 0 50 51" fill="none" xmlns="http://www.w3.org/2000/svg">
<rect y="0.5" width="50" height="50" rx="25" fill="#E8F2EE"/>
<path d="M35.5 30.6567V34.782C35.5001 35.0774 35.3882 35.3618 35.1869 35.5779C34.9855 35.794 34.7096 35.9257 34.415 35.9463C33.9052 35.9813 33.4887 36 33.1667 36C22.8568 36 14.5 27.6432 14.5 17.3333C14.5 17.0113 14.5175 16.5948 14.5537 16.085C14.5743 15.7904 14.706 15.5145 14.9221 15.3131C15.1382 15.1118 15.4226 14.9999 15.718 15H19.8433C19.988 14.9999 20.1276 15.0535 20.235 15.1505C20.3424 15.2475 20.4099 15.381 20.4243 15.525C20.4512 15.7933 20.4757 16.0068 20.499 16.169C20.7309 17.7871 21.206 19.3608 21.9083 20.8368C22.0192 21.0702 21.9468 21.349 21.7368 21.4983L19.2192 23.2973C20.7585 26.8842 23.617 29.7426 27.2038 31.282L29.0005 28.769C29.0739 28.6663 29.1811 28.5927 29.3032 28.5609C29.4254 28.5292 29.5549 28.5413 29.669 28.5952C31.1449 29.2962 32.7182 29.7701 34.3357 30.001C34.4978 30.0243 34.7113 30.05 34.9773 30.0757C35.1211 30.0904 35.2543 30.158 35.3511 30.2653C35.4479 30.3727 35.5013 30.5121 35.5012 30.6567H35.5Z" fill="#5BB5A2"/>
</svg>
