<svg width="50" height="51" viewBox="0 0 50 51" fill="none" xmlns="http://www.w3.org/2000/svg">
<rect y="0.5" width="50" height="50" rx="25" fill="#E8F2EE"/>
<path d="M29.7833 15C29.6269 15.7699 29.6269 16.5634 29.7833 17.3333H16.2628L25.0711 25.1056L30.9616 19.8323C31.4586 20.4471 32.0793 20.9593 32.7851 21.3315L25.084 28.2276L15.6666 19.9186V33.6666H34.3333V21.8833C35.1032 22.0397 35.8967 22.0397 36.6666 21.8833V34.8333C36.6666 35.1427 36.5437 35.4395 36.3249 35.6583C36.1061 35.877 35.8094 36 35.5 36H14.5C14.1906 36 13.8938 35.877 13.675 35.6583C13.4562 35.4395 13.3333 35.1427 13.3333 34.8333V16.1666C13.3333 15.8572 13.4562 15.5605 13.675 15.3417C13.8938 15.1229 14.1906 15 14.5 15H29.7833ZM35.5 19.6666C35.0404 19.6666 34.5852 19.5761 34.1606 19.4002C33.7359 19.2243 33.3501 18.9665 33.0251 18.6415C32.7001 18.3165 32.4423 17.9307 32.2664 17.506C32.0905 17.0814 32 16.6263 32 16.1666C32 15.707 32.0905 15.2519 32.2664 14.8272C32.4423 14.4026 32.7001 14.0168 33.0251 13.6918C33.3501 13.3667 33.7359 13.1089 34.1606 12.933C34.5852 12.7572 35.0404 12.6666 35.5 12.6666C36.4282 12.6666 37.3185 13.0354 37.9749 13.6918C38.6312 14.3481 39 15.2384 39 16.1666C39 17.0949 38.6312 17.9851 37.9749 18.6415C37.3185 19.2979 36.4282 19.6666 35.5 19.6666Z" fill="#5BB5A2"/>
</svg>
